<svg width="264" height="264" viewBox="0 0 264 264" fill="none" xmlns="http://www.w3.org/2000/svg">
<g filter="url(#filter0_d_6_161)">
<rect x="10" y="6" width="244" height="244" rx="26" stroke="#D9D9D9" stroke-width="12" shape-rendering="crispEdges"/>
</g>
<g filter="url(#filter1_d_6_161)">
<rect x="10" y="6" width="244" height="244" rx="26" stroke="#0000FF" stroke-width="12" stroke-dasharray="32 32" shape-rendering="crispEdges"/>
</g>
<g filter="url(#filter2_d_6_161)">
<mask id="path-3-outside-1_6_161" maskUnits="userSpaceOnUse" x="61" y="96" width="143" height="82" fill="black">
<rect fill="white" x="61" y="96" width="143" height="82"/>
<path d="M66.642 171V103.416H78.994L80.082 112.184C82.898 108.728 86.226 106.104 90.066 104.312C93.906 102.52 97.8527 101.624 101.906 101.624C108.221 101.624 112.935 103.395 116.05 106.936C119.207 110.435 120.786 115.363 120.786 121.72V171H106.45V128.824C106.45 124.899 106.215 121.741 105.746 119.352C105.277 116.963 104.338 115.235 102.93 114.168C101.565 113.101 99.5167 112.568 96.786 112.568C94.61 112.568 92.5407 113.037 90.578 113.976C88.6153 114.915 86.8233 116.152 85.202 117.688C83.5807 119.181 82.1727 120.781 80.978 122.488V171H66.642ZM167.968 161.72C172.448 161.72 176.011 160.931 178.656 159.352C181.301 157.731 182.624 155.512 182.624 152.696C182.624 150.861 182.24 149.304 181.472 148.024C180.704 146.701 179.168 145.507 176.864 144.44C174.56 143.331 171.061 142.179 166.368 140.984C161.931 139.832 158.027 138.467 154.656 136.888C151.328 135.309 148.747 133.261 146.912 130.744C145.077 128.227 144.16 124.984 144.16 121.016C144.16 117.133 145.248 113.741 147.424 110.84C149.6 107.939 152.715 105.677 156.768 104.056C160.864 102.435 165.664 101.624 171.168 101.624C176.843 101.624 181.792 102.371 186.016 103.864C190.24 105.357 193.845 107.213 196.832 109.432L190.816 118.456C188.171 116.707 185.269 115.277 182.112 114.168C178.997 113.059 175.477 112.504 171.552 112.504C166.987 112.504 163.701 113.187 161.696 114.552C159.733 115.917 158.752 117.731 158.752 119.992C158.752 121.656 159.243 123.064 160.224 124.216C161.248 125.325 162.997 126.371 165.472 127.352C167.947 128.291 171.445 129.4 175.968 130.68C180.363 131.875 184.181 133.283 187.424 134.904C190.709 136.525 193.248 138.68 195.04 141.368C196.875 144.013 197.792 147.469 197.792 151.736C197.792 156.6 196.384 160.589 193.568 163.704C190.795 166.776 187.125 169.059 182.56 170.552C178.037 172.003 173.173 172.728 167.968 172.728C161.696 172.728 156.277 171.832 151.712 170.04C147.147 168.205 143.307 165.923 140.192 163.192L147.808 154.488C150.453 156.621 153.483 158.371 156.896 159.736C160.309 161.059 164 161.72 167.968 161.72Z"/>
</mask>
<path d="M66.642 171V103.416H78.994L80.082 112.184C82.898 108.728 86.226 106.104 90.066 104.312C93.906 102.52 97.8527 101.624 101.906 101.624C108.221 101.624 112.935 103.395 116.05 106.936C119.207 110.435 120.786 115.363 120.786 121.72V171H106.45V128.824C106.45 124.899 106.215 121.741 105.746 119.352C105.277 116.963 104.338 115.235 102.93 114.168C101.565 113.101 99.5167 112.568 96.786 112.568C94.61 112.568 92.5407 113.037 90.578 113.976C88.6153 114.915 86.8233 116.152 85.202 117.688C83.5807 119.181 82.1727 120.781 80.978 122.488V171H66.642ZM167.968 161.72C172.448 161.72 176.011 160.931 178.656 159.352C181.301 157.731 182.624 155.512 182.624 152.696C182.624 150.861 182.24 149.304 181.472 148.024C180.704 146.701 179.168 145.507 176.864 144.44C174.56 143.331 171.061 142.179 166.368 140.984C161.931 139.832 158.027 138.467 154.656 136.888C151.328 135.309 148.747 133.261 146.912 130.744C145.077 128.227 144.16 124.984 144.16 121.016C144.16 117.133 145.248 113.741 147.424 110.84C149.6 107.939 152.715 105.677 156.768 104.056C160.864 102.435 165.664 101.624 171.168 101.624C176.843 101.624 181.792 102.371 186.016 103.864C190.24 105.357 193.845 107.213 196.832 109.432L190.816 118.456C188.171 116.707 185.269 115.277 182.112 114.168C178.997 113.059 175.477 112.504 171.552 112.504C166.987 112.504 163.701 113.187 161.696 114.552C159.733 115.917 158.752 117.731 158.752 119.992C158.752 121.656 159.243 123.064 160.224 124.216C161.248 125.325 162.997 126.371 165.472 127.352C167.947 128.291 171.445 129.4 175.968 130.68C180.363 131.875 184.181 133.283 187.424 134.904C190.709 136.525 193.248 138.68 195.04 141.368C196.875 144.013 197.792 147.469 197.792 151.736C197.792 156.6 196.384 160.589 193.568 163.704C190.795 166.776 187.125 169.059 182.56 170.552C178.037 172.003 173.173 172.728 167.968 172.728C161.696 172.728 156.277 171.832 151.712 170.04C147.147 168.205 143.307 165.923 140.192 163.192L147.808 154.488C150.453 156.621 153.483 158.371 156.896 159.736C160.309 161.059 164 161.72 167.968 161.72Z" fill="white"/>
<path d="M66.642 171H61.642V176H66.642V171ZM66.642 103.416V98.416H61.642V103.416H66.642ZM78.994 103.416L83.9559 102.8L83.4119 98.416H78.994V103.416ZM80.082 112.184L75.1201 112.8L76.5619 124.42L83.9582 115.342L80.082 112.184ZM90.066 104.312L92.1804 108.843L92.1804 108.843L90.066 104.312ZM116.05 106.936L112.296 110.238L112.317 110.262L112.338 110.286L116.05 106.936ZM120.786 171V176H125.786V171H120.786ZM106.45 171H101.45V176H106.45V171ZM102.93 114.168L99.8518 118.108L99.8811 118.131L99.9107 118.153L102.93 114.168ZM85.202 117.688L88.5894 121.366L88.6152 121.342L88.6407 121.318L85.202 117.688ZM80.978 122.488L76.8818 119.621L75.978 120.912V122.488H80.978ZM80.978 171V176H85.978V171H80.978ZM71.642 171V103.416H61.642V171H71.642ZM66.642 108.416H78.994V98.416H66.642V108.416ZM74.0321 104.032L75.1201 112.8L85.0439 111.568L83.9559 102.8L74.0321 104.032ZM83.9582 115.342C86.3233 112.44 89.0592 110.299 92.1804 108.843L87.9516 99.7811C83.3928 101.909 79.4727 105.016 76.2058 109.026L83.9582 115.342ZM92.1804 108.843C95.3892 107.345 98.6166 106.624 101.906 106.624V96.624C97.0888 96.624 92.4228 97.6945 87.9516 99.7811L92.1804 108.843ZM101.906 106.624C107.296 106.624 110.423 108.109 112.296 110.238L119.804 103.634C115.447 98.68 109.145 96.624 101.906 96.624V106.624ZM112.338 110.286C114.414 112.586 115.786 116.163 115.786 121.72H125.786C125.786 114.563 124.001 108.284 119.762 103.586L112.338 110.286ZM115.786 121.72V171H125.786V121.72H115.786ZM120.786 166H106.45V176H120.786V166ZM111.45 171V128.824H101.45V171H111.45ZM111.45 128.824C111.45 124.746 111.21 121.227 110.652 118.388L100.84 120.316C101.221 122.255 101.45 125.052 101.45 128.824H111.45ZM110.652 118.388C110.036 115.252 108.653 112.231 105.949 110.183L99.9107 118.153C100.023 118.239 100.517 118.673 100.84 120.316L110.652 118.388ZM106.008 110.228C103.385 108.178 100.031 107.568 96.786 107.568V117.568C99.0028 117.568 99.7445 118.024 99.8518 118.108L106.008 110.228ZM96.786 107.568C93.8635 107.568 91.0571 108.204 88.4207 109.465L92.7353 118.487C94.0243 117.87 95.3565 117.568 96.786 117.568V107.568ZM88.4207 109.465C85.9751 110.635 83.753 112.173 81.7633 114.058L88.6407 121.318C89.8936 120.131 91.2556 119.194 92.7353 118.487L88.4207 109.465ZM81.8146 114.01C79.9438 115.733 78.2945 117.603 76.8818 119.621L85.0742 125.355C86.0508 123.96 87.2175 122.629 88.5894 121.366L81.8146 114.01ZM75.978 122.488V171H85.978V122.488H75.978ZM80.978 166H66.642V176H80.978V166ZM178.656 159.352L181.218 163.646L181.244 163.63L181.269 163.615L178.656 159.352ZM181.472 148.024L177.148 150.535L177.166 150.566L177.185 150.596L181.472 148.024ZM176.864 144.44L174.695 148.945L174.729 148.961L174.763 148.977L176.864 144.44ZM166.368 140.984L165.112 145.824L165.123 145.827L165.135 145.829L166.368 140.984ZM154.656 136.888L152.513 141.406L152.524 141.411L152.535 141.416L154.656 136.888ZM146.912 130.744L142.871 133.689L142.871 133.689L146.912 130.744ZM147.424 110.84L143.424 107.84L143.424 107.84L147.424 110.84ZM156.768 104.056L154.928 99.407L154.919 99.4103L154.911 99.4136L156.768 104.056ZM186.016 103.864L184.349 108.578L184.349 108.578L186.016 103.864ZM196.832 109.432L200.992 112.205L203.628 108.252L199.814 105.418L196.832 109.432ZM190.816 118.456L188.058 122.627L192.213 125.374L194.976 121.229L190.816 118.456ZM182.112 114.168L180.434 118.878L180.444 118.882L180.455 118.885L182.112 114.168ZM161.696 114.552L158.882 110.419L158.861 110.433L158.841 110.447L161.696 114.552ZM160.224 124.216L156.418 127.458L156.482 127.534L156.55 127.607L160.224 124.216ZM165.472 127.352L163.629 132L163.664 132.014L163.699 132.027L165.472 127.352ZM175.968 130.68L174.606 135.491L174.631 135.498L174.656 135.505L175.968 130.68ZM187.424 134.904L185.188 139.376L185.2 139.382L185.211 139.388L187.424 134.904ZM195.04 141.368L190.88 144.142L190.905 144.18L190.931 144.217L195.04 141.368ZM193.568 163.704L189.859 160.351L189.857 160.353L193.568 163.704ZM182.56 170.552L184.087 175.313L184.101 175.309L184.114 175.304L182.56 170.552ZM151.712 170.04L149.848 174.679L149.866 174.687L149.885 174.694L151.712 170.04ZM140.192 163.192L136.429 159.899L133.14 163.659L136.896 166.952L140.192 163.192ZM147.808 154.488L150.947 150.596L147.208 147.581L144.045 151.195L147.808 154.488ZM156.896 159.736L155.039 164.378L155.064 164.388L155.089 164.398L156.896 159.736ZM167.968 166.72C172.965 166.72 177.524 165.85 181.218 163.646L176.094 155.058C174.498 156.011 171.931 156.72 167.968 156.72V166.72ZM181.269 163.615C185.216 161.196 187.624 157.454 187.624 152.696H177.624C177.624 153.57 177.386 154.266 176.043 155.089L181.269 163.615ZM187.624 152.696C187.624 150.162 187.09 147.669 185.759 145.452L177.185 150.596C177.39 150.939 177.624 151.561 177.624 152.696H187.624ZM185.796 145.513C184.272 142.89 181.644 141.143 178.965 139.903L174.763 148.977C175.669 149.397 176.281 149.777 176.674 150.083C177.068 150.389 177.161 150.557 177.148 150.535L185.796 145.513ZM179.033 139.935C176.272 138.605 172.386 137.356 167.601 136.139L165.135 145.829C169.737 147.001 172.848 148.056 174.695 148.945L179.033 139.935ZM167.624 136.144C163.419 135.053 159.814 133.783 156.777 132.36L152.535 141.416C156.239 143.151 160.442 144.611 165.112 145.824L167.624 136.144ZM156.799 132.37C154.087 131.084 152.213 129.529 150.953 127.799L142.871 133.689C145.28 136.994 148.569 139.535 152.513 141.406L156.799 132.37ZM150.953 127.799C149.894 126.346 149.16 124.217 149.16 121.016H139.16C139.16 125.751 140.261 130.107 142.871 133.689L150.953 127.799ZM149.16 121.016C149.16 118.134 149.944 115.813 151.424 113.84L143.424 107.84C140.552 111.67 139.16 116.133 139.16 121.016H149.16ZM151.424 113.84C152.947 111.809 155.249 110.049 158.625 108.698L154.911 99.4136C150.181 101.306 146.253 104.068 143.424 107.84L151.424 113.84ZM158.608 108.705C161.992 107.365 166.143 106.624 171.168 106.624V96.624C165.185 96.624 159.736 97.5039 154.928 99.407L158.608 108.705ZM171.168 106.624C176.419 106.624 180.782 107.317 184.349 108.578L187.683 99.1499C182.802 97.4245 177.266 96.624 171.168 96.624V106.624ZM184.349 108.578C188.195 109.938 191.337 111.578 193.85 113.446L199.814 105.418C196.354 102.848 192.285 100.777 187.683 99.1499L184.349 108.578ZM192.672 106.658L186.656 115.682L194.976 121.229L200.992 112.205L192.672 106.658ZM193.574 114.285C190.567 112.297 187.293 110.689 183.769 109.451L180.455 118.885C183.245 119.866 185.774 121.116 188.058 122.627L193.574 114.285ZM183.79 109.458C180.046 108.125 175.945 107.504 171.552 107.504V117.504C175.01 117.504 177.948 117.993 180.434 118.878L183.79 109.458ZM171.552 107.504C166.738 107.504 162.176 108.177 158.882 110.419L164.51 118.685C165.227 118.197 167.236 117.504 171.552 117.504V107.504ZM158.841 110.447C155.625 112.684 153.752 115.986 153.752 119.992H163.752C163.752 119.475 163.841 119.151 164.551 118.657L158.841 110.447ZM153.752 119.992C153.752 122.717 154.587 125.31 156.418 127.458L164.03 120.974C163.898 120.818 163.752 120.595 163.752 119.992H153.752ZM156.55 127.607C158.333 129.539 160.912 130.922 163.629 132L167.315 122.704C165.083 121.819 164.163 121.111 163.898 120.825L156.55 127.607ZM163.699 132.027C166.374 133.042 170.033 134.197 174.606 135.491L177.33 125.869C172.857 124.603 169.52 123.54 167.245 122.677L163.699 132.027ZM174.656 135.505C178.809 136.634 182.305 137.935 185.188 139.376L189.66 130.432C186.058 128.631 181.916 127.116 177.28 125.855L174.656 135.505ZM185.211 139.388C187.816 140.673 189.638 142.279 190.88 144.142L199.2 138.594C196.858 135.081 193.603 132.377 189.637 130.42L185.211 139.388ZM190.931 144.217C192.024 145.793 192.792 148.161 192.792 151.736H202.792C202.792 146.778 201.726 142.234 199.149 138.519L190.931 144.217ZM192.792 151.736C192.792 155.57 191.714 158.299 189.859 160.351L197.277 167.057C201.054 162.879 202.792 157.63 202.792 151.736H192.792ZM189.857 160.353C187.756 162.681 184.877 164.534 181.006 165.8L184.114 175.304C189.374 173.584 193.834 170.871 197.279 167.055L189.857 160.353ZM181.033 165.791C177.049 167.069 172.704 167.728 167.968 167.728V177.728C173.642 177.728 179.026 176.936 184.087 175.313L181.033 165.791ZM167.968 167.728C162.155 167.728 157.385 166.895 153.539 165.386L149.885 174.694C155.17 176.769 161.237 177.728 167.968 177.728V167.728ZM153.576 165.401C149.439 163.738 146.107 161.729 143.488 159.432L136.896 166.952C140.506 170.117 144.855 172.673 149.848 174.679L153.576 165.401ZM143.955 166.485L151.571 157.781L144.045 151.195L136.429 159.899L143.955 166.485ZM144.669 158.38C147.732 160.85 151.201 162.843 155.039 164.378L158.753 155.094C155.764 153.898 153.174 152.392 150.947 150.596L144.669 158.38ZM155.089 164.398C159.126 165.962 163.434 166.72 167.968 166.72V156.72C164.566 156.72 161.493 156.155 158.703 155.074L155.089 164.398Z" fill="#333333" mask="url(#path-3-outside-1_6_161)"/>
</g>
<defs>
<filter id="filter0_d_6_161" x="0" y="0" width="264" height="264" filterUnits="userSpaceOnUse" color-interpolation-filters="sRGB">
<feFlood flood-opacity="0" result="BackgroundImageFix"/>
<feColorMatrix in="SourceAlpha" type="matrix" values="0 0 0 0 0 0 0 0 0 0 0 0 0 0 0 0 0 0 127 0" result="hardAlpha"/>
<feOffset dy="4"/>
<feGaussianBlur stdDeviation="2"/>
<feComposite in2="hardAlpha" operator="out"/>
<feColorMatrix type="matrix" values="0 0 0 0 0 0 0 0 0 0 0 0 0 0 0 0 0 0 0.25 0"/>
<feBlend mode="normal" in2="BackgroundImageFix" result="effect1_dropShadow_6_161"/>
<feBlend mode="normal" in="SourceGraphic" in2="effect1_dropShadow_6_161" result="shape"/>
</filter>
<filter id="filter1_d_6_161" x="0" y="0" width="264" height="264" filterUnits="userSpaceOnUse" color-interpolation-filters="sRGB">
<feFlood flood-opacity="0" result="BackgroundImageFix"/>
<feColorMatrix in="SourceAlpha" type="matrix" values="0 0 0 0 0 0 0 0 0 0 0 0 0 0 0 0 0 0 127 0" result="hardAlpha"/>
<feOffset dy="4"/>
<feGaussianBlur stdDeviation="2"/>
<feComposite in2="hardAlpha" operator="out"/>
<feColorMatrix type="matrix" values="0 0 0 0 0 0 0 0 0 0 0 0 0 0 0 0 0 0 0.25 0"/>
<feBlend mode="normal" in2="BackgroundImageFix" result="effect1_dropShadow_6_161"/>
<feBlend mode="normal" in="SourceGraphic" in2="effect1_dropShadow_6_161" result="shape"/>
</filter>
<filter id="filter2_d_6_161" x="62.6421" y="101.624" width="139.15" height="79.104" filterUnits="userSpaceOnUse" color-interpolation-filters="sRGB">
<feFlood flood-opacity="0" result="BackgroundImageFix"/>
<feColorMatrix in="SourceAlpha" type="matrix" values="0 0 0 0 0 0 0 0 0 0 0 0 0 0 0 0 0 0 127 0" result="hardAlpha"/>
<feOffset dy="4"/>
<feGaussianBlur stdDeviation="2"/>
<feComposite in2="hardAlpha" operator="out"/>
<feColorMatrix type="matrix" values="0 0 0 0 0 0 0 0 0 0 0 0 0 0 0 0 0 0 0.25 0"/>
<feBlend mode="normal" in2="BackgroundImageFix" result="effect1_dropShadow_6_161"/>
<feBlend mode="normal" in="SourceGraphic" in2="effect1_dropShadow_6_161" result="shape"/>
</filter>
</defs>
</svg>
