<svg width="256" height="256" viewBox="0 0 256 256" fill="none" xmlns="http://www.w3.org/2000/svg">
<g filter="url(#filter0_d_3_155)">
<rect x="14.5" y="13.5" width="227" height="227" rx="29.5" stroke="#D9D9D9" stroke-width="5" shape-rendering="crispEdges"/>
</g>
<g filter="url(#filter1_d_3_155)">
<rect x="14.5" y="14.5" width="227" height="227" rx="29.5" stroke="#0000FF" stroke-width="5" stroke-dasharray="10 10" shape-rendering="crispEdges"/>
</g>
<g filter="url(#filter2_d_3_155)">
<mask id="path-3-outside-1_3_155" maskUnits="userSpaceOnUse" x="57" y="96" width="143" height="82" fill="black">
<rect fill="white" x="57" y="96" width="143" height="82"/>
<path d="M62.642 171V103.416H74.994L76.082 112.184C78.898 108.728 82.226 106.104 86.066 104.312C89.906 102.52 93.8527 101.624 97.906 101.624C104.221 101.624 108.935 103.395 112.05 106.936C115.207 110.435 116.786 115.363 116.786 121.72V171H102.45V128.824C102.45 124.899 102.215 121.741 101.746 119.352C101.277 116.963 100.338 115.235 98.93 114.168C97.5647 113.101 95.5167 112.568 92.786 112.568C90.61 112.568 88.5407 113.037 86.578 113.976C84.6153 114.915 82.8233 116.152 81.202 117.688C79.5807 119.181 78.1727 120.781 76.978 122.488V171H62.642ZM163.968 161.72C168.448 161.72 172.011 160.931 174.656 159.352C177.301 157.731 178.624 155.512 178.624 152.696C178.624 150.861 178.24 149.304 177.472 148.024C176.704 146.701 175.168 145.507 172.864 144.44C170.56 143.331 167.061 142.179 162.368 140.984C157.931 139.832 154.027 138.467 150.656 136.888C147.328 135.309 144.747 133.261 142.912 130.744C141.077 128.227 140.16 124.984 140.16 121.016C140.16 117.133 141.248 113.741 143.424 110.84C145.6 107.939 148.715 105.677 152.768 104.056C156.864 102.435 161.664 101.624 167.168 101.624C172.843 101.624 177.792 102.371 182.016 103.864C186.24 105.357 189.845 107.213 192.832 109.432L186.816 118.456C184.171 116.707 181.269 115.277 178.112 114.168C174.997 113.059 171.477 112.504 167.552 112.504C162.987 112.504 159.701 113.187 157.696 114.552C155.733 115.917 154.752 117.731 154.752 119.992C154.752 121.656 155.243 123.064 156.224 124.216C157.248 125.325 158.997 126.371 161.472 127.352C163.947 128.291 167.445 129.4 171.968 130.68C176.363 131.875 180.181 133.283 183.424 134.904C186.709 136.525 189.248 138.68 191.04 141.368C192.875 144.013 193.792 147.469 193.792 151.736C193.792 156.6 192.384 160.589 189.568 163.704C186.795 166.776 183.125 169.059 178.56 170.552C174.037 172.003 169.173 172.728 163.968 172.728C157.696 172.728 152.277 171.832 147.712 170.04C143.147 168.205 139.307 165.923 136.192 163.192L143.808 154.488C146.453 156.621 149.483 158.371 152.896 159.736C156.309 161.059 160 161.72 163.968 161.72Z"/>
</mask>
<path d="M62.642 171V103.416H74.994L76.082 112.184C78.898 108.728 82.226 106.104 86.066 104.312C89.906 102.52 93.8527 101.624 97.906 101.624C104.221 101.624 108.935 103.395 112.05 106.936C115.207 110.435 116.786 115.363 116.786 121.72V171H102.45V128.824C102.45 124.899 102.215 121.741 101.746 119.352C101.277 116.963 100.338 115.235 98.93 114.168C97.5647 113.101 95.5167 112.568 92.786 112.568C90.61 112.568 88.5407 113.037 86.578 113.976C84.6153 114.915 82.8233 116.152 81.202 117.688C79.5807 119.181 78.1727 120.781 76.978 122.488V171H62.642ZM163.968 161.72C168.448 161.72 172.011 160.931 174.656 159.352C177.301 157.731 178.624 155.512 178.624 152.696C178.624 150.861 178.24 149.304 177.472 148.024C176.704 146.701 175.168 145.507 172.864 144.44C170.56 143.331 167.061 142.179 162.368 140.984C157.931 139.832 154.027 138.467 150.656 136.888C147.328 135.309 144.747 133.261 142.912 130.744C141.077 128.227 140.16 124.984 140.16 121.016C140.16 117.133 141.248 113.741 143.424 110.84C145.6 107.939 148.715 105.677 152.768 104.056C156.864 102.435 161.664 101.624 167.168 101.624C172.843 101.624 177.792 102.371 182.016 103.864C186.24 105.357 189.845 107.213 192.832 109.432L186.816 118.456C184.171 116.707 181.269 115.277 178.112 114.168C174.997 113.059 171.477 112.504 167.552 112.504C162.987 112.504 159.701 113.187 157.696 114.552C155.733 115.917 154.752 117.731 154.752 119.992C154.752 121.656 155.243 123.064 156.224 124.216C157.248 125.325 158.997 126.371 161.472 127.352C163.947 128.291 167.445 129.4 171.968 130.68C176.363 131.875 180.181 133.283 183.424 134.904C186.709 136.525 189.248 138.68 191.04 141.368C192.875 144.013 193.792 147.469 193.792 151.736C193.792 156.6 192.384 160.589 189.568 163.704C186.795 166.776 183.125 169.059 178.56 170.552C174.037 172.003 169.173 172.728 163.968 172.728C157.696 172.728 152.277 171.832 147.712 170.04C143.147 168.205 139.307 165.923 136.192 163.192L143.808 154.488C146.453 156.621 149.483 158.371 152.896 159.736C156.309 161.059 160 161.72 163.968 161.72Z" fill="white"/>
<path d="M62.642 171H57.642V176H62.642V171ZM62.642 103.416V98.416H57.642V103.416H62.642ZM74.994 103.416L79.9559 102.8L79.4119 98.416H74.994V103.416ZM76.082 112.184L71.1201 112.8L72.5619 124.42L79.9582 115.342L76.082 112.184ZM86.066 104.312L88.1804 108.843L88.1804 108.843L86.066 104.312ZM112.05 106.936L108.296 110.238L108.317 110.262L108.338 110.286L112.05 106.936ZM116.786 171V176H121.786V171H116.786ZM102.45 171H97.45V176H102.45V171ZM98.93 114.168L95.8518 118.108L95.8811 118.131L95.9107 118.153L98.93 114.168ZM81.202 117.688L84.5894 121.366L84.6152 121.342L84.6407 121.318L81.202 117.688ZM76.978 122.488L72.8818 119.621L71.978 120.912V122.488H76.978ZM76.978 171V176H81.978V171H76.978ZM67.642 171V103.416H57.642V171H67.642ZM62.642 108.416H74.994V98.416H62.642V108.416ZM70.0321 104.032L71.1201 112.8L81.0439 111.568L79.9559 102.8L70.0321 104.032ZM79.9582 115.342C82.3233 112.44 85.0592 110.299 88.1804 108.843L83.9516 99.7811C79.3928 101.909 75.4727 105.016 72.2058 109.026L79.9582 115.342ZM88.1804 108.843C91.3892 107.345 94.6166 106.624 97.906 106.624V96.624C93.0888 96.624 88.4228 97.6945 83.9516 99.7811L88.1804 108.843ZM97.906 106.624C103.296 106.624 106.423 108.109 108.296 110.238L115.804 103.634C111.447 98.68 105.145 96.624 97.906 96.624V106.624ZM108.338 110.286C110.414 112.586 111.786 116.163 111.786 121.72H121.786C121.786 114.563 120.001 108.284 115.762 103.586L108.338 110.286ZM111.786 121.72V171H121.786V121.72H111.786ZM116.786 166H102.45V176H116.786V166ZM107.45 171V128.824H97.45V171H107.45ZM107.45 128.824C107.45 124.746 107.21 121.227 106.652 118.388L96.8398 120.316C97.2208 122.255 97.45 125.052 97.45 128.824H107.45ZM106.652 118.388C106.036 115.252 104.653 112.231 101.949 110.183L95.9107 118.153C96.023 118.239 96.5172 118.673 96.8398 120.316L106.652 118.388ZM102.008 110.228C99.3849 108.178 96.0305 107.568 92.786 107.568V117.568C95.0028 117.568 95.7445 118.024 95.8518 118.108L102.008 110.228ZM92.786 107.568C89.8635 107.568 87.0571 108.204 84.4207 109.465L88.7353 118.487C90.0243 117.87 91.3565 117.568 92.786 117.568V107.568ZM84.4207 109.465C81.9751 110.635 79.753 112.173 77.7633 114.058L84.6407 121.318C85.8936 120.131 87.2556 119.194 88.7353 118.487L84.4207 109.465ZM77.8146 114.01C75.9438 115.733 74.2945 117.603 72.8818 119.621L81.0742 125.355C82.0508 123.96 83.2175 122.629 84.5894 121.366L77.8146 114.01ZM71.978 122.488V171H81.978V122.488H71.978ZM76.978 166H62.642V176H76.978V166ZM174.656 159.352L177.218 163.646L177.244 163.63L177.269 163.615L174.656 159.352ZM177.472 148.024L173.148 150.535L173.166 150.566L173.185 150.596L177.472 148.024ZM172.864 144.44L170.695 148.945L170.729 148.961L170.763 148.977L172.864 144.44ZM162.368 140.984L161.112 145.824L161.123 145.827L161.135 145.829L162.368 140.984ZM150.656 136.888L148.513 141.406L148.524 141.411L148.535 141.416L150.656 136.888ZM142.912 130.744L138.871 133.689L138.871 133.689L142.912 130.744ZM143.424 110.84L139.424 107.84L139.424 107.84L143.424 110.84ZM152.768 104.056L150.928 99.407L150.919 99.4103L150.911 99.4136L152.768 104.056ZM182.016 103.864L180.349 108.578L180.349 108.578L182.016 103.864ZM192.832 109.432L196.992 112.205L199.628 108.252L195.814 105.418L192.832 109.432ZM186.816 118.456L184.058 122.627L188.213 125.374L190.976 121.229L186.816 118.456ZM178.112 114.168L176.434 118.878L176.444 118.882L176.455 118.885L178.112 114.168ZM157.696 114.552L154.882 110.419L154.861 110.433L154.841 110.447L157.696 114.552ZM156.224 124.216L152.418 127.458L152.482 127.534L152.55 127.607L156.224 124.216ZM161.472 127.352L159.629 132L159.664 132.014L159.699 132.027L161.472 127.352ZM171.968 130.68L170.606 135.491L170.631 135.498L170.656 135.505L171.968 130.68ZM183.424 134.904L181.188 139.376L181.2 139.382L181.211 139.388L183.424 134.904ZM191.04 141.368L186.88 144.142L186.905 144.18L186.931 144.217L191.04 141.368ZM189.568 163.704L185.859 160.351L185.857 160.353L189.568 163.704ZM178.56 170.552L180.087 175.313L180.101 175.309L180.114 175.304L178.56 170.552ZM147.712 170.04L145.848 174.679L145.866 174.687L145.885 174.694L147.712 170.04ZM136.192 163.192L132.429 159.899L129.14 163.659L132.896 166.952L136.192 163.192ZM143.808 154.488L146.947 150.596L143.208 147.581L140.045 151.195L143.808 154.488ZM152.896 159.736L151.039 164.378L151.064 164.388L151.089 164.398L152.896 159.736ZM163.968 166.72C168.965 166.72 173.524 165.85 177.218 163.646L172.094 155.058C170.498 156.011 167.931 156.72 163.968 156.72V166.72ZM177.269 163.615C181.216 161.196 183.624 157.454 183.624 152.696H173.624C173.624 153.57 173.386 154.266 172.043 155.089L177.269 163.615ZM183.624 152.696C183.624 150.162 183.09 147.669 181.759 145.452L173.185 150.596C173.39 150.939 173.624 151.561 173.624 152.696H183.624ZM181.796 145.513C180.272 142.89 177.644 141.143 174.965 139.903L170.763 148.977C171.669 149.397 172.281 149.777 172.674 150.083C173.068 150.389 173.161 150.557 173.148 150.535L181.796 145.513ZM175.033 139.935C172.272 138.605 168.386 137.356 163.601 136.139L161.135 145.829C165.737 147.001 168.848 148.056 170.695 148.945L175.033 139.935ZM163.624 136.144C159.419 135.053 155.814 133.783 152.777 132.36L148.535 141.416C152.239 143.151 156.442 144.611 161.112 145.824L163.624 136.144ZM152.799 132.37C150.087 131.084 148.213 129.529 146.953 127.799L138.871 133.689C141.28 136.994 144.569 139.535 148.513 141.406L152.799 132.37ZM146.953 127.799C145.894 126.346 145.16 124.217 145.16 121.016H135.16C135.16 125.751 136.261 130.107 138.871 133.689L146.953 127.799ZM145.16 121.016C145.16 118.134 145.944 115.813 147.424 113.84L139.424 107.84C136.552 111.67 135.16 116.133 135.16 121.016H145.16ZM147.424 113.84C148.947 111.809 151.249 110.049 154.625 108.698L150.911 99.4136C146.181 101.306 142.253 104.068 139.424 107.84L147.424 113.84ZM154.608 108.705C157.992 107.365 162.143 106.624 167.168 106.624V96.624C161.185 96.624 155.736 97.5039 150.928 99.407L154.608 108.705ZM167.168 106.624C172.419 106.624 176.782 107.317 180.349 108.578L183.683 99.1499C178.802 97.4245 173.266 96.624 167.168 96.624V106.624ZM180.349 108.578C184.195 109.938 187.337 111.578 189.85 113.446L195.814 105.418C192.354 102.848 188.285 100.777 183.683 99.1499L180.349 108.578ZM188.672 106.658L182.656 115.682L190.976 121.229L196.992 112.205L188.672 106.658ZM189.574 114.285C186.567 112.297 183.293 110.689 179.769 109.451L176.455 118.885C179.245 119.866 181.774 121.116 184.058 122.627L189.574 114.285ZM179.79 109.458C176.046 108.125 171.945 107.504 167.552 107.504V117.504C171.01 117.504 173.948 117.993 176.434 118.878L179.79 109.458ZM167.552 107.504C162.738 107.504 158.176 108.177 154.882 110.419L160.51 118.685C161.227 118.197 163.236 117.504 167.552 117.504V107.504ZM154.841 110.447C151.625 112.684 149.752 115.986 149.752 119.992H159.752C159.752 119.475 159.841 119.151 160.551 118.657L154.841 110.447ZM149.752 119.992C149.752 122.717 150.587 125.31 152.418 127.458L160.03 120.974C159.898 120.818 159.752 120.595 159.752 119.992H149.752ZM152.55 127.607C154.333 129.539 156.912 130.922 159.629 132L163.315 122.704C161.083 121.819 160.163 121.111 159.898 120.825L152.55 127.607ZM159.699 132.027C162.374 133.042 166.033 134.197 170.606 135.491L173.33 125.869C168.857 124.603 165.52 123.54 163.245 122.677L159.699 132.027ZM170.656 135.505C174.809 136.634 178.305 137.935 181.188 139.376L185.66 130.432C182.058 128.631 177.916 127.116 173.28 125.855L170.656 135.505ZM181.211 139.388C183.816 140.673 185.638 142.279 186.88 144.142L195.2 138.594C192.858 135.081 189.603 132.377 185.637 130.42L181.211 139.388ZM186.931 144.217C188.024 145.793 188.792 148.161 188.792 151.736H198.792C198.792 146.778 197.726 142.234 195.149 138.519L186.931 144.217ZM188.792 151.736C188.792 155.57 187.714 158.299 185.859 160.351L193.277 167.057C197.054 162.879 198.792 157.63 198.792 151.736H188.792ZM185.857 160.353C183.756 162.681 180.877 164.534 177.006 165.8L180.114 175.304C185.374 173.584 189.834 170.871 193.279 167.055L185.857 160.353ZM177.033 165.791C173.049 167.069 168.704 167.728 163.968 167.728V177.728C169.642 177.728 175.026 176.936 180.087 175.313L177.033 165.791ZM163.968 167.728C158.155 167.728 153.385 166.895 149.539 165.386L145.885 174.694C151.17 176.769 157.237 177.728 163.968 177.728V167.728ZM149.576 165.401C145.439 163.738 142.107 161.729 139.488 159.432L132.896 166.952C136.506 170.117 140.855 172.673 145.848 174.679L149.576 165.401ZM139.955 166.485L147.571 157.781L140.045 151.195L132.429 159.899L139.955 166.485ZM140.669 158.38C143.732 160.85 147.201 162.843 151.039 164.378L154.753 155.094C151.764 153.898 149.174 152.392 146.947 150.596L140.669 158.38ZM151.089 164.398C155.126 165.962 159.434 166.72 163.968 166.72V156.72C160.566 156.72 157.493 156.155 154.703 155.074L151.089 164.398Z" fill="#333333" mask="url(#path-3-outside-1_3_155)"/>
</g>
<defs>
<filter id="filter0_d_3_155" x="8" y="11" width="240" height="240" filterUnits="userSpaceOnUse" color-interpolation-filters="sRGB">
<feFlood flood-opacity="0" result="BackgroundImageFix"/>
<feColorMatrix in="SourceAlpha" type="matrix" values="0 0 0 0 0 0 0 0 0 0 0 0 0 0 0 0 0 0 127 0" result="hardAlpha"/>
<feOffset dy="4"/>
<feGaussianBlur stdDeviation="2"/>
<feComposite in2="hardAlpha" operator="out"/>
<feColorMatrix type="matrix" values="0 0 0 0 0 0 0 0 0 0 0 0 0 0 0 0 0 0 0.25 0"/>
<feBlend mode="normal" in2="BackgroundImageFix" result="effect1_dropShadow_3_155"/>
<feBlend mode="normal" in="SourceGraphic" in2="effect1_dropShadow_3_155" result="shape"/>
</filter>
<filter id="filter1_d_3_155" x="8" y="12" width="240" height="240" filterUnits="userSpaceOnUse" color-interpolation-filters="sRGB">
<feFlood flood-opacity="0" result="BackgroundImageFix"/>
<feColorMatrix in="SourceAlpha" type="matrix" values="0 0 0 0 0 0 0 0 0 0 0 0 0 0 0 0 0 0 127 0" result="hardAlpha"/>
<feOffset dy="4"/>
<feGaussianBlur stdDeviation="2"/>
<feComposite in2="hardAlpha" operator="out"/>
<feColorMatrix type="matrix" values="0 0 0 0 0 0 0 0 0 0 0 0 0 0 0 0 0 0 0.25 0"/>
<feBlend mode="normal" in2="BackgroundImageFix" result="effect1_dropShadow_3_155"/>
<feBlend mode="normal" in="SourceGraphic" in2="effect1_dropShadow_3_155" result="shape"/>
</filter>
<filter id="filter2_d_3_155" x="58.6421" y="101.624" width="139.15" height="79.104" filterUnits="userSpaceOnUse" color-interpolation-filters="sRGB">
<feFlood flood-opacity="0" result="BackgroundImageFix"/>
<feColorMatrix in="SourceAlpha" type="matrix" values="0 0 0 0 0 0 0 0 0 0 0 0 0 0 0 0 0 0 127 0" result="hardAlpha"/>
<feOffset dy="4"/>
<feGaussianBlur stdDeviation="2"/>
<feComposite in2="hardAlpha" operator="out"/>
<feColorMatrix type="matrix" values="0 0 0 0 0 0 0 0 0 0 0 0 0 0 0 0 0 0 0.25 0"/>
<feBlend mode="normal" in2="BackgroundImageFix" result="effect1_dropShadow_3_155"/>
<feBlend mode="normal" in="SourceGraphic" in2="effect1_dropShadow_3_155" result="shape"/>
</filter>
</defs>
</svg>
